<svg width="211" height="103" viewBox="0 0 211 103" fill="none" xmlns="http://www.w3.org/2000/svg">
<g clip-path="url(#clip0_25_292)">
<g clip-path="url(#clip1_25_292)">
<mask id="mask0_25_292" style="mask-type:luminance" maskUnits="userSpaceOnUse" x="14" y="3" width="184" height="97">
<path d="M14.2636 40.7254L184.266 3.78894L197.052 62.636L27.0493 99.5725L14.2636 40.7254Z" fill="white"/>
</mask>
<g mask="url(#mask0_25_292)">
<path d="M16.9159 40.2903C16.3902 40.3287 15.9938 40.787 16.0329 41.3134L16.6616 49.8933C16.7007 50.4198 17.1583 50.8154 17.685 50.7767C18.2116 50.738 18.6071 50.2799 18.569 49.7534L18.0095 42.1269L25.6361 41.5677C26.1627 41.5291 26.5582 41.071 26.5191 40.5446C26.481 40.018 26.0224 39.6226 25.4957 39.6612L16.9159 40.2903ZM187.235 25.6625C175.853 54.8137 150.497 73.1882 119.473 76.9697C88.4365 80.7525 51.6725 69.9281 17.6105 40.5201L16.3617 41.967C50.7586 71.6646 88.0446 82.7261 119.704 78.8673C151.375 75.0072 177.359 56.2122 189.016 26.3578L187.235 25.6625Z" fill="#050505"/>
</g>
</g>
</g>
<defs>
<clipPath id="clip0_25_292">
<rect width="201.996" height="60.22" fill="white" transform="matrix(-0.977201 0.212317 0.212317 0.977201 197.962 0.813232)"/>
</clipPath>
<clipPath id="clip1_25_292">
<rect width="173.969" height="60.22" fill="white" transform="matrix(-0.977201 0.212317 0.212317 0.977201 184.266 3.78894)"/>
</clipPath>
</defs>
</svg>
