<svg width="36" height="36" viewBox="0 0 36 36" fill="none" xmlns="http://www.w3.org/2000/svg">
<path fill-rule="evenodd" clip-rule="evenodd" d="M31.5 16.875C32.1213 16.875 32.625 17.3787 32.625 18V31.5C32.625 32.1213 32.1213 32.625 31.5 32.625H4.5C3.87868 32.625 3.375 32.1213 3.375 31.5V18.0062C3.375 17.3849 3.87868 16.8812 4.5 16.8812C5.12132 16.8812 5.625 17.3849 5.625 18.0062V30.375H30.375V18C30.375 17.3787 30.8787 16.875 31.5 16.875Z" fill="#214FE2"/>
<path fill-rule="evenodd" clip-rule="evenodd" d="M10.4545 16.4545C10.8938 16.0152 11.6062 16.0152 12.0455 16.4545L18 22.409L23.9545 16.4545C24.3938 16.0152 25.1062 16.0152 25.5455 16.4545C25.9848 16.8938 25.9848 17.6062 25.5455 18.0455L18.7955 24.7955C18.3562 25.2348 17.6438 25.2348 17.2045 24.7955L10.4545 18.0455C10.0152 17.6062 10.0152 16.8938 10.4545 16.4545Z" fill="#214FE2"/>
<path fill-rule="evenodd" clip-rule="evenodd" d="M17.9937 3.375C18.615 3.375 19.1187 3.87868 19.1187 4.5V24C19.1187 24.6213 18.615 25.125 17.9937 25.125C17.3723 25.125 16.8687 24.6213 16.8687 24V4.5C16.8687 3.87868 17.3723 3.375 17.9937 3.375Z" fill="#214FE2"/>
</svg>
