<svg width="949" height="151" viewBox="0 0 949 151" fill="none" xmlns="http://www.w3.org/2000/svg">
<path d="M1 46L12.2602 99.0077C25.1893 159.872 108.704 168.093 133.253 110.918V110.918C150.805 70.0408 203.759 59.236 235.922 89.9698L260.715 113.661C274.525 126.858 292.271 135.178 311.249 137.353L316.395 137.943C344.107 141.121 371.668 130.854 390.547 110.321V110.321C413.922 84.8982 450.095 75.659 482.798 86.7579L532.629 103.67C583.587 120.963 639.421 97.3665 662.532 48.7694L667.675 37.9545C672.79 27.1984 680.805 18.0827 690.817 11.6323V11.6323C712.946 -2.62402 741.547 -1.88027 762.905 13.5069L764.436 14.61C770.763 19.1681 777.84 22.5829 785.345 24.6997L813 32.5L816.366 33.1491C860.137 41.5908 905.302 39.3094 948 26.5V26.5" stroke="#E5E5E5"/>
</svg>
