<svg width="36" height="37" viewBox="0 0 36 37" fill="none" xmlns="http://www.w3.org/2000/svg">
<path d="M10.7679 32.3028V31.7246H6.33887V36.7886H6.85508H10.7679V32.3028Z" fill="#65B572"/>
<path d="M17.0756 29.0039V28.4258H12.6465V36.7884H13.1627H17.0756V29.0039Z" fill="#65B572"/>
<path d="M23.3837 24.8432V24.2703H18.9546V36.7883H19.4656H23.3837V24.8432Z" fill="#65B572"/>
<path d="M29.6923 21.8957V21.3228H25.2632V36.7884H25.7794H29.6923V21.8957Z" fill="#65B572"/>
<path d="M35.9999 19.0928V18.5198H31.5708V36.7884H32.087H35.9999V19.0928Z" fill="#65B572"/>
<path d="M10.2051 2.58443C8.71328 2.55346 8.90428 4.22597 9.20368 4.92285C9.69408 5.6249 10.2671 5.95527 10.9588 5.95527C11.0672 5.95527 11.1808 5.94494 11.2943 5.92946C11.2943 5.92946 11.2943 5.92946 11.3047 5.92946H11.3201C12.43 5.7746 12.9823 5.00028 13.1114 3.43101C13.1114 3.38455 13.1114 2.59475 13.0494 2.26437C13.0443 2.22824 13.034 2.19727 13.0288 2.16113C12.9978 2.18694 12.972 2.20243 12.941 2.21792C12.5074 2.46053 11.2995 2.59991 10.2103 2.57926L10.2051 2.58443Z" fill="#FCD09A"/>
<path d="M8.58413 1.552C8.54799 1.61911 8.51702 1.68105 8.49121 1.74816C8.54799 1.62427 8.58413 1.552 8.58413 1.552Z" fill="#FCD09A"/>
<path d="M8.10889 3.28654C8.10889 4.41704 9.72978 5.50624 9.3736 5.18619C9.32198 5.13973 9.26519 5.04681 9.20841 4.92292C8.90385 4.22604 8.71801 2.55352 10.2099 2.5845C11.2991 2.60515 12.5018 2.4606 12.9406 2.22314C12.9664 2.20766 12.9974 2.18701 13.0284 2.16636C13.2968 1.94955 13.6065 1.43335 13.6065 1.43335C13.6065 1.43335 13.0438 1.49013 12.8838 1.22171C12.3728 0.380286 11.33 -0.295948 9.96208 0.132505C8.81093 0.493851 8.59929 1.55724 8.59929 1.55724C8.59929 1.55724 8.55799 1.63467 8.50637 1.7534C8.36699 2.06313 8.12437 2.68774 8.12437 3.28654H8.10889Z" fill="#0F2D38"/>
<path d="M5.64721 31.0326C5.4304 31.7966 6.35958 31.3475 7.12357 31.5643C7.25778 31.6004 10.2311 31.7243 10.3654 31.7243C10.6802 31.7243 10.7319 31.7243 10.7319 31.652C10.7319 31.2907 10.4789 30.9706 10.1486 30.8158L9.02321 30.2944C9.02321 30.2944 8.97676 30.2738 8.95095 30.2634L7.23713 29.6285C6.7106 29.4323 6.12212 29.7059 5.93113 30.2325L5.64205 31.0326H5.64721Z" fill="#050714"/>
<path d="M12.9877 26.4127C12.6108 27.1147 15.0422 27.2747 15.7391 27.6516C15.8578 27.7187 17.3187 28.0697 17.4425 28.1007C17.7471 28.1678 17.8039 28.1833 17.8194 28.1058C17.8968 27.7496 17.7213 27.3883 17.4271 27.1663C17.4271 27.1663 16.8179 27.0786 16.7973 27.0631L15.388 25.2202C14.9131 24.9157 13.7362 25.2202 13.4368 25.69L12.9825 26.4127H12.9877Z" fill="#050714"/>
<path d="M8.99183 30.2791L10.9792 23.3309C11.0102 23.2225 11.0257 23.1141 11.0309 23.0006L11.2322 18.6438L13.2247 19.893V25.8603L16.1052 25.8036V19.098C16.1052 18.6025 15.8522 18.143 15.429 17.8746L12.6621 16.1401L10.3649 16.2279L8.47046 16.3002C8.46014 16.3569 8.45498 16.4189 8.44981 16.4808L8.24849 20.7808L8.57887 20.8428C9.09507 20.9357 9.4461 21.4364 9.35318 21.9527L9.05894 23.5839L8.49627 26.7224C8.40335 27.2386 7.90263 27.5896 7.38642 27.4967L6.81859 27.3935L6.28174 29.2777L8.99183 30.2843V30.2791Z" fill="#1C75BC"/>
<path d="M7.72749 13.3576L8.10432 12.6298L9.65811 9.20217L10.3653 16.2278L12.6624 16.14C12.7399 15.9955 12.776 15.8406 12.7605 15.6754L12.6418 14.3126L14.9854 15.598L15.9713 13.5848L13.2974 12.1187L12.1669 8.9389L12.0946 8.11297C12.0946 8.11297 11.9346 6.69339 11.2584 6.37335L9.41033 5.9707C9.05414 6.00168 8.66699 6.38367 8.25918 7.1012C8.2024 7.19928 5.58522 12.6453 5.58522 12.6453L4.61475 18.3546L6.82412 18.7314L7.73781 13.3628L7.72749 13.3576Z" fill="#A6CFE5"/>
<path d="M8.10889 12.63L8.41345 16.0576C8.41861 16.1402 8.44442 16.2228 8.4754 16.3003L10.3699 16.228L9.66268 9.20239L8.10889 12.63Z" fill="#8CBDD3"/>
<path d="M15.491 15.8718C16.033 16.1712 16.7144 15.9699 17.0138 15.4279C17.3132 14.8858 17.1119 14.2044 16.5698 13.905L15.9762 13.5798L14.9902 15.593L15.491 15.8666V15.8718Z" fill="#FCD09A"/>
<path d="M0.567429 22.2882C0.567429 22.2727 0.567429 22.2572 0.567429 22.2418V22.2263C0.567429 22.2263 0.567429 22.2004 0.567429 22.185C0.567429 22.1798 0.567429 22.1746 0.567429 22.1695C0.567429 22.154 0.567429 22.1437 0.567429 22.1282C0.567429 22.123 0.567429 22.1179 0.567429 22.1127C0.567429 22.0921 0.567429 22.0766 0.577754 22.0559L0.505485 22.4637L0.0150859 25.1945C-0.0778317 25.7107 0.268028 26.2114 0.789399 26.3043L3.52014 26.7947L5.01199 27.0631L0.882317 22.9335C0.701644 22.7683 0.588078 22.536 0.567429 22.2882Z" fill="#FFE59C"/>
<path d="M8.55828 26.4025L8.868 24.6783C8.91446 24.4305 8.67185 24.2395 8.42923 24.3221C8.27953 24.3738 8.1195 24.3892 7.95431 24.3583L5.64686 23.9453C5.64686 23.9453 5.64686 23.9918 5.64686 24.0176L5.59008 24.3273C5.56427 24.4821 5.43005 24.5906 5.27519 24.5906C5.25454 24.5906 5.23906 24.5906 5.21841 24.5906L3.84529 24.3428C3.66978 24.3118 3.55622 24.1466 3.58719 23.9711L3.64397 23.6614C3.64397 23.6614 3.65429 23.6149 3.66462 23.5891L1.35717 23.1761C1.35717 23.1761 1.31587 23.1658 1.29522 23.1607C1.29522 23.1607 1.2849 23.1607 1.27973 23.1607C1.25909 23.1607 1.2436 23.1503 1.22295 23.1452C1.2023 23.14 1.18166 23.1297 1.16101 23.1194C1.05777 23.0781 0.970009 23.0161 0.892578 22.9438L4.94998 27.0013C4.99644 27.0477 5.05838 27.0787 5.12033 27.089L6.82898 27.3936L7.07676 27.44C7.76848 27.5639 8.43955 27.0993 8.56344 26.4076L8.55828 26.4025Z" fill="#FFC522"/>
<path d="M6.6225 19.5833C6.56572 19.6968 6.49345 19.8001 6.4057 19.8826L6.30762 20.4298L6.6225 20.4866L6.72575 19.9188C6.74639 19.7897 6.7051 19.671 6.6225 19.5833Z" fill="#2F5363"/>
<path d="M4.3617 19.4955C4.36686 19.4645 4.39267 19.4438 4.42364 19.4438C4.42364 19.4438 4.4288 19.4438 4.43397 19.4438L4.55786 19.4645C4.52172 19.3561 4.49591 19.2425 4.49591 19.1289C4.49591 19.1289 4.44945 19.1238 4.4288 19.1238C4.24297 19.1238 4.08294 19.258 4.05197 19.4387L3.94873 20.0065L4.26362 20.0633L4.36686 19.4955H4.3617Z" fill="#2F5363"/>
<path d="M3.77341 23.9967C3.76308 24.069 3.80954 24.1361 3.87665 24.1464L5.24977 24.3942C5.32204 24.4045 5.38914 24.3581 5.39947 24.291L5.45625 23.9812C5.45625 23.9554 5.45625 23.9296 5.44592 23.9038L3.86633 23.6199C3.86633 23.6199 3.83535 23.6612 3.83019 23.687L3.77341 23.9967Z" fill="#2F5363"/>
<path d="M5.45579 23.9815L5.39901 24.2912C5.38868 24.3583 5.32158 24.4099 5.24931 24.3944L3.87619 24.1467C3.80392 24.1312 3.75746 24.0641 3.77295 23.9969L3.82973 23.6872C3.82973 23.6614 3.85038 23.6356 3.86587 23.6201L3.66455 23.584C3.66455 23.584 3.64906 23.6304 3.6439 23.6562L3.58712 23.966C3.55614 24.1415 3.66971 24.3067 3.84522 24.3376L5.21834 24.5854C5.21834 24.5854 5.25447 24.5854 5.27512 24.5854C5.42998 24.5854 5.5642 24.4719 5.59001 24.3222L5.64679 24.0124C5.64679 24.0124 5.65195 23.9608 5.64679 23.9402L5.44547 23.904C5.44547 23.904 5.46095 23.9505 5.45579 23.9815Z" fill="#FCB632"/>
<path d="M0.572754 22.1283C0.572754 22.1283 0.572754 22.1541 0.572754 22.1696C0.572754 22.1747 0.572754 22.1799 0.572754 22.1851C0.572754 22.2005 0.572754 22.2109 0.572754 22.2264V22.2418C0.572754 22.2418 0.572754 22.2728 0.572754 22.2883C0.58824 22.5361 0.706969 22.7684 0.887642 22.9336C0.965073 23.0058 1.05799 23.0626 1.15607 23.1091C1.17672 23.1194 1.19737 23.1246 1.21801 23.1349C1.23866 23.14 1.25415 23.1452 1.2748 23.1504C1.2748 23.1504 1.28512 23.1504 1.29028 23.1504C1.31093 23.1504 1.33158 23.1607 1.35223 23.1659L3.65968 23.5788L3.861 23.615L5.4406 23.8989L5.64192 23.935L7.94938 24.348C8.46559 24.4409 8.96631 24.095 9.05923 23.5737L9.29668 22.2625C9.42057 21.5708 8.95598 20.8997 8.26426 20.7758H8.25394L6.62788 20.4816L6.31299 20.4248L4.26365 20.0583L3.94876 20.0015L2.30722 19.7073C1.6155 19.5834 0.944424 20.048 0.820534 20.7397L0.583078 22.0509C0.583078 22.0509 0.577916 22.087 0.572754 22.1076C0.572754 22.1128 0.572754 22.118 0.572754 22.1231V22.1283Z" fill="#FFE59C"/>
<path d="M5.43015 20.1976C5.4921 20.2079 5.5592 20.2131 5.62115 20.2131C5.92571 20.2131 6.20447 20.0892 6.41095 19.8879C6.4987 19.8001 6.57097 19.6969 6.62776 19.5885C6.67421 19.4955 6.70519 19.3923 6.72584 19.2839L6.81875 18.7316L4.60938 18.3547L4.51646 18.9122C4.50614 18.9897 4.50098 19.0619 4.50098 19.1342C4.50098 19.2529 4.52679 19.3665 4.56292 19.4697C4.69197 19.8414 5.01718 20.1305 5.43015 20.2028V20.1976Z" fill="#FCD09A"/>
</svg>
