<svg width="45" height="53" viewBox="0 0 45 53" fill="none" xmlns="http://www.w3.org/2000/svg">
<path d="M41.2765 0H3.17512C1.4288 0 0 1.47406 0 3.3125V49.6875C0 51.5094 1.4288 53 3.17512 53H30.1636L44.4516 38.0938V3.3125C44.4516 1.47406 43.0387 0 41.2765 0Z" fill="#DE3A34"/>
<path d="M33.3304 38.0938C31.5841 38.0938 30.1553 39.5844 30.1553 41.4062V53L44.4433 38.0938H33.3304Z" fill="#95201B"/>
<path d="M37.0001 26.2183C36.3492 25.8705 35.4443 25.7048 34.2219 25.7048C32.5074 25.7048 30.7134 25.8374 28.8719 26.1024C26.4111 23.5683 23.8869 20.0074 22.0295 16.4299C22.982 13.0511 23.4583 8.96017 22.0454 7.35361C21.6167 6.8733 21.0453 6.60828 20.3944 6.60828C19.2672 6.60828 18.6639 7.12173 18.3463 7.55235C16.9334 9.49016 18.7909 13.9289 20.1244 16.5789C19.9339 17.1917 19.7276 17.8045 19.5053 18.4008C18.5687 20.9183 16.6318 26.1023 14.4568 30.5742C10.6784 32.3961 6.39209 35.1289 6.39209 36.9839C6.39209 39.5676 8.31298 39.7664 8.91625 39.7664C10.2974 39.7664 12.3454 38.8389 15.8698 31.7336C19.791 29.9117 24.1251 28.5371 28.1892 27.858C30.5547 30.1436 32.6662 31.2864 34.476 31.2864C35.9048 31.2864 38.0797 29.4645 38.0797 27.8911C38.0956 27.1789 37.6987 26.5992 37.0001 26.2183ZM8.91625 38.1599C8.70987 38.1599 8.20183 38.1598 8.20183 36.9839C8.24946 36.5036 9.80535 34.9633 13.1551 33.0917C10.5198 37.8783 9.17026 38.1599 8.91625 38.1599ZM19.8704 8.43016C19.9339 8.33079 20.0451 8.23142 20.3944 8.23142C20.442 8.23142 20.5054 8.23143 20.6165 8.34737C21.1563 8.96018 21.331 10.9808 20.7912 13.8296C19.5847 10.9146 19.41 9.04297 19.8704 8.43016ZM26.7922 26.4502C23.5377 27.0795 20.1721 28.1064 16.9811 29.4314L17.0286 29.3486L16.9811 29.3652C18.8226 25.3239 20.3943 21.1005 21.2198 18.8977C21.2357 18.8645 21.2516 18.8314 21.2516 18.7983L21.2992 18.8977L21.3151 18.8148C22.9185 21.5973 24.8553 24.2805 26.7922 26.4171H26.7446L26.7922 26.4502ZM34.476 29.6633C33.4123 29.6633 31.9835 28.918 30.3801 27.5267C31.6977 27.3777 32.9836 27.3114 34.2219 27.3114C35.4443 27.3114 36.2699 27.5267 36.2857 27.8414C36.3175 28.537 34.9523 29.6302 34.476 29.6633Z" fill="white"/>
</svg>
