<svg width="208" height="63" viewBox="0 0 208 63" fill="none" xmlns="http://www.w3.org/2000/svg">
<path d="M31.4932 58.6933H30.4219V54.8967C30.4219 54.7989 30.4341 54.7011 30.4748 54.6115L30.4626 54.5993C30.3771 54.6441 30.2875 54.6441 30.1571 54.6441H28.3362C28.2058 54.6441 28.1162 54.6441 28.0307 54.5993L28.0184 54.6115C28.0633 54.7011 28.0714 54.7989 28.0714 54.8967V58.6933H27V53.6501H31.4851V58.6933H31.4932Z" fill="white"/>
<path d="M38.0604 56.1716C38.0604 57.7441 37.046 58.8562 35.6162 58.8562C34.777 58.8562 34.1212 58.4529 33.7586 57.7115L33.7138 57.7237C33.779 57.964 33.8116 58.3551 33.8116 58.7828V60.8767H32.7402V53.6501H33.779C33.779 54.0859 33.7586 54.4363 33.7138 54.6196L33.7586 54.6318C34.1293 53.8904 34.773 53.4871 35.6162 53.4871C37.046 53.4871 38.0604 54.5992 38.0604 56.1716ZM33.7709 56.1716C33.7709 57.1656 34.4471 57.8541 35.4084 57.8541C36.3698 57.8541 36.9238 57.2186 36.9238 56.1716C36.9238 55.1247 36.3576 54.4892 35.4084 54.4892C34.4593 54.4892 33.7709 55.1777 33.7709 56.1716Z" fill="white"/>
<path d="M44.1997 56.1716C44.1997 57.7115 43.0305 58.8562 41.4377 58.8562C39.845 58.8562 38.6758 57.7115 38.6758 56.1716C38.6758 54.6318 39.845 53.4871 41.4377 53.4871C43.0305 53.4871 44.1997 54.6318 44.1997 56.1716ZM39.8124 56.1716C39.8124 57.1534 40.4682 57.8092 41.4377 57.8092C42.4073 57.8092 43.0631 57.1534 43.0631 56.1716C43.0631 55.1899 42.4073 54.534 41.4377 54.534C40.4682 54.534 39.8124 55.1899 39.8124 56.1716Z" fill="white"/>
<path d="M49.7923 56.1716V56.3794H46.5497C46.179 56.3794 46.0038 56.359 45.8857 56.2938L45.8653 56.3142L45.9101 56.4446C46.0201 57.3408 46.5741 57.8418 47.4703 57.8418C48.061 57.8418 48.4969 57.6341 48.9979 57.1004L49.6538 57.8092C49.0631 58.5181 48.3543 58.8562 47.45 58.8562C45.8775 58.8562 44.8184 57.797 44.8184 56.2042C44.8184 54.6115 45.8327 53.4871 47.3848 53.4871C48.9368 53.4871 49.7964 54.5015 49.7964 56.1716M45.9223 55.6584L45.9427 55.6788C46.0609 55.6136 46.3012 55.5688 46.566 55.5688H47.841C48.3665 55.5688 48.5417 55.5891 48.6476 55.6665L48.668 55.6462C48.6028 54.8925 48.1221 54.4567 47.3481 54.4567C46.5741 54.4567 46.0283 54.9047 45.9183 55.6584" fill="white"/>
<path d="M53.5397 58.0699L53.2872 57.1737C53.1568 56.6604 52.9817 56.4853 52.5784 56.4853H52.1099C51.9795 56.4853 51.837 56.473 51.7718 56.4649L51.7596 56.4771C51.8044 56.6197 51.8125 56.7297 51.8125 56.9374V58.6932H50.7412V53.65H51.8125V55.2102C51.8125 55.3976 51.8003 55.5035 51.7596 55.6461L51.7718 55.6583C51.837 55.6461 51.9795 55.6379 52.1099 55.6379H52.5784C52.9939 55.6379 53.112 55.5402 53.2994 55.0269L53.6701 54.1307C53.8127 53.7681 54.106 53.6174 54.6518 53.6174H55.1855V54.5788H54.9574C54.6396 54.5788 54.5215 54.6562 54.3911 54.9617L54.216 55.422C54.0734 55.8376 53.7353 56.0331 53.1446 56.0453V56.0901C53.7882 56.1023 54.0856 56.2857 54.216 56.746L54.4237 57.4548C54.5133 57.7277 54.5867 57.7725 54.937 57.7725H55.2099V58.7339H54.5785C54.0001 58.7339 53.6742 58.5261 53.5397 58.078" fill="white"/>
<path d="M60.3922 53.6501V54.6441H58.8116C58.6812 54.6441 58.5916 54.6441 58.5061 54.5993L58.4939 54.6115C58.5387 54.697 58.5468 54.7989 58.5468 54.8967V58.6933H57.4755V54.8967C57.4755 54.7989 57.4877 54.7011 57.5284 54.6115L57.5162 54.5993C57.4306 54.6441 57.341 54.6441 57.2107 54.6441H55.626V53.6501H60.384H60.3922Z" fill="white"/>
<path d="M69.6351 56.1716C69.6351 57.7115 68.466 58.8562 66.8732 58.8562C65.2804 58.8562 64.1113 57.7115 64.1113 56.1716C64.1113 54.6318 65.2804 53.4871 66.8732 53.4871C68.466 53.4871 69.6351 54.6318 69.6351 56.1716ZM65.2479 56.1716C65.2479 57.1534 65.9037 57.8092 66.8732 57.8092C67.8428 57.8092 68.4986 57.1534 68.4986 56.1716C68.4986 55.1899 67.8428 54.534 66.8732 54.534C65.9037 54.534 65.2479 55.1899 65.2479 56.1716Z" fill="white"/>
<path d="M74.6901 53.6501V54.6441H73.1055C72.9751 54.6441 72.8855 54.6441 72.8 54.5993L72.7877 54.6115C72.8326 54.697 72.8407 54.7989 72.8407 54.8967V58.6933H71.7693V54.8967C71.7693 54.7989 71.7816 54.7011 71.8223 54.6115L71.8101 54.5993C71.7245 54.6441 71.6349 54.6441 71.5046 54.6441H69.9199V53.6501H74.6779H74.6901Z" fill="white"/>
<path d="M85.6195 52.1714C87.5178 52.1714 89.0535 53.5645 89.0535 55.4588C89.0535 57.353 87.4893 58.7666 85.7213 58.7666C84.8903 58.7666 84.0878 58.5303 83.4808 57.8459H83.4075V62.6324H82.1406V55.9843C82.1406 53.6623 83.4768 52.1714 85.6195 52.1714ZM85.6032 57.6545C86.8579 57.6545 87.7174 56.6605 87.7174 55.4588C87.7174 54.2571 86.8782 53.2835 85.6032 53.2835C84.3281 53.2835 83.4523 54.2611 83.4523 55.4506C83.4523 56.6401 84.3363 57.6545 85.6032 57.6545Z" fill="white"/>
<path d="M90.2266 55.4711C90.2266 53.5728 91.8157 52.1755 93.6847 52.1755C95.5547 52.1755 97.1437 53.5769 97.1437 55.4711C97.1437 57.3653 95.5547 58.7666 93.6847 58.7666C91.8157 58.7666 90.2266 57.3653 90.2266 55.4711ZM93.6847 57.6586C94.9477 57.6586 95.8077 56.685 95.8077 55.4711C95.8077 54.2571 94.9477 53.2836 93.6847 53.2836C92.4227 53.2836 91.5627 54.249 91.5627 55.4711C91.5627 56.6932 92.4227 57.6586 93.6847 57.6586Z" fill="white"/>
<path d="M101.816 58.7666C99.8283 58.7666 98.3213 57.3775 98.3213 55.4711C98.3213 53.5646 99.7923 52.1755 101.771 52.1755C103.291 52.1755 104.708 52.9984 105.067 54.5627H103.767C103.45 53.7235 102.692 53.2876 101.808 53.2876C100.472 53.2876 99.6573 54.2816 99.6573 55.4915C99.6573 56.7013 100.496 57.6586 101.833 57.6586C102.7 57.6586 103.486 57.2594 103.792 56.351H105.104C104.635 58.013 103.279 58.7707 101.816 58.7707" fill="white"/>
<path d="M109.792 57.854L107.715 53.5115H107.678V58.6321H106.46V52.3098H108.403L110.461 56.636H110.497L112.558 52.3098H114.497V58.6321H113.279V53.5115H113.243L111.165 57.854H109.792Z" fill="white"/>
<path d="M115.854 55.4711C115.854 53.5728 117.443 52.1755 119.312 52.1755C121.182 52.1755 122.771 53.5769 122.771 55.4711C122.771 57.3653 121.182 58.7666 119.312 58.7666C117.443 58.7666 115.854 57.3653 115.854 55.4711ZM119.312 57.6586C120.579 57.6586 121.435 56.685 121.435 55.4711C121.435 54.2571 120.575 53.2836 119.312 53.2836C118.05 53.2836 117.19 54.249 117.19 55.4711C117.19 56.6932 118.05 57.6586 119.312 57.6586Z" fill="white"/>
<path d="M123.415 58.6849V57.3732H123.443C123.687 57.3732 123.985 57.2632 124.164 57.0554C124.4 56.7947 124.514 56.3222 124.645 55.6378L124.824 54.6276C125.032 53.4625 125.447 52.2771 127.199 52.2771H129.663V58.6279H128.401V53.4503H127.415C126.429 53.4503 126.221 53.7192 125.989 55.0675L125.826 56.0167C125.684 56.8843 125.464 57.6339 125.011 58.1105C124.669 58.4731 124.189 58.6808 123.549 58.6808H123.415V58.6849Z" fill="white"/>
<path d="M131.069 55.4711C131.069 53.5728 132.657 52.1755 134.527 52.1755C136.397 52.1755 137.986 53.5769 137.986 55.4711C137.986 57.3653 136.397 58.7666 134.527 58.7666C132.657 58.7666 131.069 57.3653 131.069 55.4711ZM134.527 57.6586C135.79 57.6586 136.65 56.685 136.65 55.4711C136.65 54.2571 135.79 53.2836 134.527 53.2836C133.264 53.2836 132.405 54.249 132.405 55.4711C132.405 56.6932 133.264 57.6586 134.527 57.6586Z" fill="white"/>
<path d="M139.448 60.1678H138.23V57.4589H139.053C139.416 57.0515 139.603 56.4486 139.774 55.7154L140.047 54.5422C140.308 53.4138 140.797 52.2854 142.361 52.2854H144.817V57.4629H145.73V60.1719H144.512V58.6361H139.452V60.1719L139.448 60.1678ZM143.567 57.4833V53.4382H142.381C141.611 53.4382 141.351 54.0533 141.196 54.701L140.915 55.919C140.76 56.5953 140.528 57.1574 140.291 57.3896V57.4792H143.563L143.567 57.4833Z" fill="white"/>
<path d="M150.145 58.7664C148.129 58.7664 146.667 57.3773 146.667 55.4709C146.667 53.5644 148.137 52.1753 150.101 52.1753C151.62 52.1753 153.445 53.1693 153.445 55.5727V55.8334H147.933C148.068 56.8885 148.891 57.6584 150.137 57.6584C150.879 57.6584 151.763 57.3855 152.007 56.7459H153.307C152.907 58.1391 151.437 58.7705 150.145 58.7705M147.95 50H149.261V51.3117H147.95V50ZM152.125 54.8679C151.926 53.9106 151.184 53.267 150.084 53.267C148.984 53.267 148.223 53.9514 147.991 54.8679H152.129H152.125ZM150.797 50H152.109V51.3117H150.797V50Z" fill="white"/>
<path d="M159.405 52.3098V54.8191H160.464L161.955 52.3098H163.344L161.491 55.3243L163.499 58.6321H162.081L160.48 55.9679H159.405V58.6321H158.211V55.9679H157.14L155.539 58.6321H154.122L156.126 55.3243L154.276 52.3098H155.665L157.156 54.8191H158.211V52.3098H159.405Z" fill="white"/>
<path d="M164.383 55.7848L164.367 52.3059H165.629L165.638 54.1023H165.674C166.208 53.4506 166.884 53.1369 167.699 53.1369C169.251 53.1369 170.51 54.2938 170.51 55.911C170.51 57.5283 169.226 58.7666 167.467 58.7666C165.707 58.7666 164.395 57.512 164.387 55.7848M167.442 57.6546C168.444 57.6546 169.178 56.9498 169.178 55.964C169.178 54.9782 168.444 54.2571 167.442 54.2571C166.44 54.2571 165.715 54.9782 165.715 55.964C165.715 56.9498 166.448 57.6546 167.442 57.6546Z" fill="white"/>
<path d="M54.973 15L51.403 6.143H51.284L51.403 7.146V15H48.275V3.1H52.695L56.061 11.736H56.146L59.512 3.1H63.932V15H60.804V7.146L60.923 6.143H60.804L57.234 15H54.973ZM75.6483 6.058C75.025 5.446 74.1637 5.14 73.0643 5.14C71.965 5.14 71.1037 5.446 70.4803 6.058C69.755 6.74933 69.3923 7.74667 69.3923 9.05C69.3923 10.3533 69.755 11.3507 70.4803 12.042C71.1037 12.654 71.965 12.96 73.0643 12.96C74.1637 12.96 75.025 12.654 75.6483 12.042C76.3737 11.3507 76.7363 10.3533 76.7363 9.05C76.7363 7.74667 76.3737 6.74933 75.6483 6.058ZM80.1363 9.05C80.1363 10.988 79.513 12.5067 78.2663 13.606C76.9857 14.762 75.2517 15.34 73.0643 15.34C70.877 15.34 69.143 14.762 67.8623 13.606C66.6157 12.5067 65.9923 10.988 65.9923 9.05C65.9923 7.15733 66.6157 5.63867 67.8623 4.494C69.143 3.338 70.877 2.76 73.0643 2.76C75.2517 2.76 76.9857 3.338 78.2663 4.494C79.513 5.63867 80.1363 7.15733 80.1363 9.05ZM80.8392 14.966V12.671C80.9752 12.7163 81.1792 12.739 81.4512 12.739C81.9498 12.739 82.3408 12.6087 82.6242 12.348C83.0322 11.974 83.2702 11.311 83.3382 10.359C83.4175 9.52033 83.4572 8.63067 83.4572 7.69L83.4742 3.1H93.5552V15H90.4272V5.48H86.3132L86.2962 8.2C86.2962 9.36733 86.2338 10.4497 86.1092 11.447C85.9618 12.7277 85.5652 13.6627 84.9192 14.252C84.2845 14.83 83.3892 15.119 82.2332 15.119C81.7118 15.119 81.2472 15.068 80.8392 14.966ZM105.266 6.058C104.642 5.446 103.781 5.14 102.682 5.14C101.582 5.14 100.721 5.446 100.098 6.058C99.3722 6.74933 99.0095 7.74667 99.0095 9.05C99.0095 10.3533 99.3722 11.3507 100.098 12.042C100.721 12.654 101.582 12.96 102.682 12.96C103.781 12.96 104.642 12.654 105.266 12.042C105.991 11.3507 106.354 10.3533 106.354 9.05C106.354 7.74667 105.991 6.74933 105.266 6.058ZM109.754 9.05C109.754 10.988 109.13 12.5067 107.884 13.606C106.603 14.762 104.869 15.34 102.682 15.34C100.494 15.34 98.7602 14.762 97.4795 13.606C96.2328 12.5067 95.6095 10.988 95.6095 9.05C95.6095 7.15733 96.2328 5.63867 97.4795 4.494C98.7602 3.338 100.494 2.76 102.682 2.76C104.869 2.76 106.603 3.338 107.884 4.494C109.13 5.63867 109.754 7.15733 109.754 9.05ZM120.452 5.48H116.559V6.381C116.559 7.673 116.469 8.71567 116.287 9.509C116.095 10.4497 115.67 11.4867 115.012 12.62H120.452V5.48ZM123.58 12.62H125.603L125.433 17.55H122.815V15H113.023V17.55H110.422L110.235 12.62H111.986C112.621 11.4753 113.069 10.4213 113.329 9.458C113.386 9.24267 113.437 9.03867 113.482 8.846C113.528 8.65333 113.562 8.44933 113.584 8.234C113.618 8.00733 113.641 7.83733 113.652 7.724C113.675 7.59933 113.686 7.40667 113.686 7.146C113.698 6.88533 113.703 6.73233 113.703 6.687C113.703 6.63033 113.703 6.45467 113.703 6.16C113.703 5.86533 113.703 5.71233 113.703 5.701V3.1H123.58V12.62ZM130.244 7.826H136.772V10.07H130.244V12.62H138.149V15H127.116V3.1H137.962V5.48H130.244V7.826ZM147.133 15V9.509L142.611 15H138.82L144.464 8.574L139.058 3.1H142.747L147.133 7.928V3.1H150.261V7.928L154.647 3.1H158.336L152.947 8.574L158.574 15H154.8L150.261 9.509V15H147.133ZM162.799 9.934V15H159.671V3.1H162.799V7.554H168.443V3.1H171.571V15H168.443V9.934H162.799ZM177.309 9.73V12.722H180.386C181.112 12.722 181.639 12.5917 181.967 12.331C182.307 12.0363 182.477 11.6397 182.477 11.141C182.477 10.6763 182.302 10.3193 181.95 10.07C181.667 9.84333 181.163 9.73 180.437 9.73H177.309ZM177.309 3.1V7.52H180.862C182.415 7.52 183.594 7.83167 184.398 8.455C185.192 9.067 185.588 9.97367 185.588 11.175C185.588 12.6257 185.073 13.674 184.041 14.32C183.339 14.7733 182.149 15 180.471 15H174.181V3.1H177.309ZM186.778 3.1H189.906V15H186.778V3.1ZM195.654 7.826H202.182V10.07H195.654V12.62H203.559V15H192.526V3.1H203.372V5.48H195.654V7.826ZM57.642 29.835H60.906C60.872 30.6737 60.668 31.399 60.294 32.011C59.92 32.623 59.495 33.0933 59.019 33.422C58.1237 34.0453 56.69 34.357 54.718 34.357C53.6073 34.357 52.6213 34.2493 51.76 34.034C50.8987 33.8187 50.1223 33.3767 49.431 32.708C48.2863 31.6427 47.714 30.1127 47.714 28.118C47.714 26.2253 48.2637 24.7067 49.363 23.562C50.553 22.372 52.2473 21.777 54.446 21.777C56.52 21.777 58.0727 22.1283 59.104 22.831C59.5233 23.103 59.9087 23.511 60.26 24.055C60.6113 24.599 60.7983 25.279 60.821 26.095H57.557C57.5003 25.4603 57.2057 24.973 56.673 24.633C56.163 24.3157 55.4943 24.157 54.667 24.157C53.5563 24.157 52.7007 24.4687 52.1 25.092C51.4427 25.8173 51.114 26.8203 51.114 28.101C51.114 29.427 51.454 30.43 52.134 31.11C52.7347 31.688 53.5847 31.977 54.684 31.977C55.6247 31.977 56.316 31.824 56.758 31.518C57.302 31.144 57.5967 30.583 57.642 29.835ZM71.2987 25.058C70.6754 24.446 69.814 24.14 68.7147 24.14C67.6154 24.14 66.754 24.446 66.1307 25.058C65.4054 25.7493 65.0427 26.7467 65.0427 28.05C65.0427 29.3533 65.4054 30.3507 66.1307 31.042C66.754 31.654 67.6154 31.96 68.7147 31.96C69.814 31.96 70.6754 31.654 71.2987 31.042C72.024 30.3507 72.3867 29.3533 72.3867 28.05C72.3867 26.7467 72.024 25.7493 71.2987 25.058ZM75.7867 28.05C75.7867 29.988 75.1634 31.5067 73.9167 32.606C72.636 33.762 70.902 34.34 68.7147 34.34C66.5274 34.34 64.7934 33.762 63.5127 32.606C62.266 31.5067 61.6427 29.988 61.6427 28.05C61.6427 26.1573 62.266 24.6387 63.5127 23.494C64.7934 22.338 66.5274 21.76 68.7147 21.76C70.902 21.76 72.636 22.338 73.9167 23.494C75.1634 24.6387 75.7867 26.1573 75.7867 28.05ZM80.9538 28.968V31.79H84.2858C85.0678 31.79 85.5438 31.705 85.7138 31.535C86.1104 31.2743 86.3088 30.889 86.3088 30.379C86.3088 29.835 86.1104 29.4497 85.7138 29.223C85.4078 29.053 84.9148 28.968 84.2348 28.968H80.9538ZM80.9538 24.31V26.826H83.7588C84.5974 26.826 85.1584 26.707 85.4418 26.469C85.7024 26.2537 85.8328 25.9363 85.8328 25.517C85.8328 25.1203 85.6741 24.803 85.3568 24.565C85.1188 24.395 84.6428 24.31 83.9288 24.31H80.9538ZM77.8258 22.1H84.6938C86.2238 22.1 87.2891 22.304 87.8898 22.712C88.6604 23.2447 89.0458 24.0437 89.0458 25.109C89.0458 25.9023 88.8078 26.5257 88.3318 26.979C88.1391 27.149 87.9124 27.2963 87.6518 27.421C87.3911 27.5457 87.1814 27.625 87.0228 27.659C86.8641 27.693 86.7564 27.71 86.6998 27.71V27.778C87.6631 27.8687 88.4111 28.1803 88.9438 28.713C89.4311 29.2003 89.6748 29.8747 89.6748 30.736C89.6748 31.7447 89.3801 32.521 88.7908 33.065C88.1108 33.6883 86.7848 34 84.8128 34H77.8258V22.1ZM94.9489 26.826H101.477V29.07H94.9489V31.62H102.854V34H91.8209V22.1H102.667V24.48H94.9489V26.826ZM108.263 24.48H104.115V22.1H115.539V24.48H111.391V34H108.263V24.48ZM120.183 28.73V31.722H123.26C123.986 31.722 124.513 31.5917 124.841 31.331C125.181 31.0363 125.351 30.6397 125.351 30.141C125.351 29.6763 125.176 29.3193 124.824 29.07C124.541 28.8433 124.037 28.73 123.311 28.73H120.183ZM120.183 22.1V26.52H123.736C125.289 26.52 126.468 26.8317 127.272 27.455C128.066 28.067 128.462 28.9737 128.462 30.175C128.462 31.6257 127.947 32.674 126.915 33.32C126.213 33.7733 125.023 34 123.345 34H117.055V22.1H120.183ZM129.652 22.1H132.78V34H129.652V22.1Z" fill="white"/>
<path d="M25.5597 25.9177C24.4741 29.421 21.2064 31.9675 17.3463 31.9675H11.1925L7.77445 35.8959V31.9257C3.41344 31.5116 0 27.8407 0 23.3696V21.0883C0 16.6032 3.43205 12.9199 7.81632 12.526V14.9236C7.81632 20.9952 12.7403 25.9192 18.8119 25.9192H25.5581L25.5597 25.9177Z" fill="#EF8E57"/>
<path opacity="0.13" d="M25.5596 25.9176C25.2727 26.8466 24.8307 27.7104 24.2631 28.4734H19.0274C11.4778 28.4734 5.35352 22.3522 5.35352 14.8011V13.1215C6.12429 12.8082 6.9509 12.602 7.81472 12.5244V14.922C7.81472 20.9936 12.7387 25.9176 18.8103 25.9176H25.5581H25.5596Z" fill="#6C3899"/>
<path d="M25.9427 21.0867V23.368C25.9427 24.2535 25.8078 25.1127 25.5597 25.9176H18.8134C12.7418 25.9176 7.81787 20.9936 7.81787 14.922V12.5244C8.07376 12.4996 8.33586 12.4872 8.5995 12.4872H17.3463C22.0935 12.4872 25.9412 16.3364 25.9412 21.0851L25.9427 21.0867Z" fill="white"/>
<path d="M41.0002 12.0018V14.922C41.0002 20.6385 36.6361 25.3391 31.0561 25.8664V30.9424L26.6842 25.9176H25.5583C25.8064 25.1112 25.9398 24.2535 25.9398 23.3665V21.0851C25.9398 20.7253 25.9181 20.3702 25.8731 20.0197C25.3489 15.7735 21.7292 12.4856 17.3434 12.4856H8.59657C8.33293 12.4856 8.07083 12.4981 7.81494 12.5229V12.0002C7.81494 5.92552 12.7374 1 18.809 1H30.0015C36.0731 1 40.9971 5.92397 40.9971 12.0002L41.0002 12.0018Z" fill="#FFD12D"/>
<path opacity="0.13" d="M27.3649 20.4633C27.4207 21.3783 27.3928 22.3011 27.3044 23.2037C27.278 23.4689 26.9849 25.9192 26.6856 25.9192H25.5597C25.8078 25.1128 25.9412 24.2551 25.9412 23.3681C25.9412 20.5067 25.8652 17.8796 23.9499 15.5827C22.3261 13.6364 19.882 12.4888 17.3463 12.4888H8.5995C8.33431 12.4888 8.07221 12.5012 7.81787 12.526V12.0034C7.81787 11.5567 7.84423 11.1163 7.89696 10.6836H17.5681C20.5861 10.6836 23.4815 12.115 25.3208 14.5065C26.6468 16.231 27.2346 18.3278 27.3649 20.4633Z" fill="#6C3899"/>
<g style="mix-blend-mode:screen" opacity="0.39">
<path d="M18.5018 2.39575C13.9097 2.39575 10.1179 5.8278 9.55492 10.2679C9.52236 10.5191 9.86199 10.6324 9.98761 10.4137C10.563 9.41183 11.6811 7.78653 13.5965 6.12401C15.5645 4.41497 17.5604 3.37434 18.7562 2.8424C18.9857 2.74004 18.9112 2.3973 18.66 2.3973H18.5003L18.5018 2.39575Z" fill="white"/>
</g>
</svg>
