<svg width="215" height="37" viewBox="0 0 215 37" fill="none" xmlns="http://www.w3.org/2000/svg">
<g clip-path="url(#clip0_348_65)">
<path fill-rule="evenodd" clip-rule="evenodd" d="M37.7218 0.945557H67.7663V34.8566H60.3843V8.60043H45.1037V37H23.0317V18.7049H7.38196V34.8566H0V11.05H30.4136V29.3451H37.7218V0.945557Z" fill="#7AE9FD"/>
<path d="M95.9888 6.12988C98.6429 6.12988 100.775 8.2283 100.775 11.0728C100.775 13.8708 98.599 16.0158 96.1196 16.0158C94.9449 16.0158 93.8132 15.6427 92.987 14.6168H92.8992V21.7981H91.1157V11.819C91.1157 8.3682 92.987 6.12988 95.9888 6.12988ZM95.9449 14.3371C97.6859 14.3371 98.9037 12.8448 98.9037 11.0262C98.9037 9.2542 97.7289 7.76199 95.9449 7.76199C94.1618 7.76199 92.9431 9.20757 92.9431 11.0262C92.9431 12.8448 94.2048 14.3371 95.9449 14.3371Z" fill="white"/>
<path d="M102.429 11.0728C102.429 8.22831 104.647 6.12988 107.258 6.12988C109.869 6.12988 112.087 8.22831 112.087 11.0728C112.087 13.9174 109.869 16.0158 107.258 16.0158C104.647 16.0158 102.429 13.9174 102.429 11.0728ZM107.258 14.3371C109.042 14.3371 110.216 12.8915 110.216 11.0728C110.216 9.25421 108.999 7.80862 107.258 7.80862C105.517 7.80862 104.3 9.25421 104.3 11.0728C104.3 12.8915 105.474 14.3371 107.258 14.3371Z" fill="white"/>
<path d="M118.613 16.0158C115.829 16.0158 113.741 13.9174 113.741 11.0728C113.741 8.22831 115.786 6.12988 118.57 6.12988C120.701 6.12988 122.659 7.34231 123.182 9.72051H121.354C120.919 8.46147 119.831 7.80862 118.613 7.80862C116.742 7.80862 115.611 9.30084 115.611 11.1195C115.611 12.9381 116.785 14.3837 118.656 14.3837C119.875 14.3837 120.963 13.7775 121.397 12.4251H123.225C122.572 14.85 120.658 16.0158 118.613 16.0158Z" fill="white"/>
<path d="M129.795 14.6635L126.88 8.13504H126.836V15.8293H125.139V6.31641H127.837L130.708 12.7982H130.752L133.624 6.31641H136.321V15.7827H134.624V8.13504H134.581L131.666 14.6635H129.795Z" fill="white"/>
<path d="M138.236 11.0728C138.236 8.22831 140.454 6.12988 143.065 6.12988C145.676 6.12988 147.894 8.22831 147.894 11.0728C147.894 13.9174 145.676 16.0158 143.065 16.0158C140.454 16.0158 138.236 13.9174 138.236 11.0728ZM143.109 14.3371C144.893 14.3371 146.067 12.8915 146.067 11.0728C146.067 9.25421 144.849 7.80862 143.109 7.80862C141.325 7.80862 140.15 9.25421 140.15 11.0728C140.107 12.8915 141.325 14.3371 143.109 14.3371Z" fill="white"/>
<path d="M148.809 15.8758V13.9172H148.853C149.2 13.9172 149.592 13.7773 149.853 13.451C150.201 13.0779 150.332 12.3318 150.506 11.3059L150.766 9.76699C151.071 8.04166 151.637 6.26965 154.073 6.26965H157.51V15.7825H155.727V8.04166H154.335C152.942 8.04166 152.681 8.46134 152.333 10.4665L152.115 11.8655C151.898 13.1712 151.594 14.2903 150.984 14.9898C150.506 15.5493 149.853 15.8291 148.939 15.8291H148.809V15.8758Z" fill="white"/>
<path d="M159.511 11.0728C159.511 8.22831 161.73 6.12988 164.34 6.12988C166.951 6.12988 169.17 8.22831 169.17 11.0728C169.17 13.9174 166.951 16.0158 164.34 16.0158C161.73 16.0158 159.511 13.9174 159.511 11.0728ZM164.34 14.3371C166.125 14.3371 167.299 12.8915 167.299 11.0728C167.299 9.25421 166.081 7.80862 164.34 7.80862C162.556 7.80862 161.382 9.25421 161.382 11.0728C161.382 12.8915 162.6 14.3371 164.34 14.3371Z" fill="white"/>
<path d="M171.259 18.1141H169.562V14.0572H170.694C171.215 13.451 171.477 12.5183 171.694 11.4457L172.085 9.67373C172.434 7.99503 173.13 6.26965 175.305 6.26965H178.742V14.0572H180.004V18.1141H178.307V15.8291H171.215V18.1141H171.259ZM177.002 14.1038V8.04166H175.349C174.261 8.04166 173.913 8.97429 173.695 9.9536L173.304 11.7722C173.086 12.798 172.782 13.6375 172.434 13.9638V14.1038H177.002Z" fill="white"/>
<path d="M186.183 16.0158C183.355 16.0158 181.31 13.9173 181.31 11.0728C181.31 8.22824 183.355 6.12982 186.096 6.12982C188.228 6.12982 190.751 7.62203 190.751 11.2127V11.5857H183.05C183.224 13.1712 184.399 14.337 186.139 14.337C187.184 14.337 188.401 13.9173 188.75 12.9847H190.577C190.055 15.0831 188.01 16.0158 186.183 16.0158ZM183.137 2.8656H184.964V4.82412H183.137V2.8656ZM188.967 10.1402C188.706 8.69456 187.662 7.76193 186.096 7.76193C184.573 7.76193 183.485 8.78782 183.18 10.1402H188.967ZM187.096 2.8656H188.924V4.82412H187.096V2.8656Z" fill="white"/>
<path d="M199.147 6.31641V10.0936H200.627L202.716 6.31641H204.673L202.062 10.8397L204.847 15.7827H202.845L200.627 11.7724H199.104V15.7827H197.45V11.7724H195.971L193.752 15.7827H191.751L194.535 10.8397L191.925 6.31641H193.883L195.971 10.0936H197.45V6.31641H199.147Z" fill="white"/>
<path d="M206.109 11.5392L206.065 6.31641H207.849V9.02104H207.892C208.632 8.04177 209.589 7.57546 210.72 7.57546C212.896 7.57546 214.636 9.30083 214.636 11.7257C214.636 14.1972 212.853 16.0158 210.372 16.0158C207.936 16.0158 206.109 14.1505 206.109 11.5392ZM210.372 14.337C211.765 14.337 212.809 13.2645 212.809 11.8189C212.809 10.3734 211.765 9.2542 210.372 9.2542C208.98 9.2542 207.979 10.3267 207.979 11.8189C207.979 13.3112 208.98 14.337 210.372 14.337Z" fill="white"/>
<path d="M96.1626 32.2339L93.5094 29.2951L95.9147 26.8245H94.7967L92.6512 29.1779V26.8245H91.8379V32.2339H92.6512V29.5058L95.0455 32.2339H96.1626ZM98.738 32.4095C99.6868 32.4095 100.353 31.9529 100.714 31.2738H100.737V32.2339H101.549V26.8245H100.737V27.7846H100.714C100.353 27.1055 99.6868 26.6488 98.738 26.6488C97.3044 26.6488 96.1525 27.7377 96.1525 29.5292C96.1525 31.3207 97.3044 32.4095 98.738 32.4095ZM98.8963 31.5782C97.7554 31.5782 97.0107 30.7235 97.0107 29.5292C97.0107 28.3349 97.7554 27.4802 98.8963 27.4802C100.036 27.4802 100.782 28.3349 100.782 29.5292C100.782 30.7235 100.036 31.5782 98.8963 31.5782ZM102.975 34.5757H103.788V31.2738H103.811C104.172 31.9529 104.839 32.4095 105.787 32.4095C107.221 32.4095 108.373 31.3207 108.373 29.5292C108.373 27.7377 107.221 26.6488 105.787 26.6488C104.839 26.6488 104.172 27.1055 103.811 27.7846H103.788V26.8245H102.975V34.5757ZM105.629 31.5782C104.488 31.5782 103.743 30.7235 103.743 29.5292C103.743 28.3349 104.488 27.4802 105.629 27.4802C106.769 27.4802 107.515 28.3349 107.515 29.5292C107.515 30.7235 106.769 31.5782 105.629 31.5782ZM111.943 28.8267H110.272V26.8245H109.459V32.2339H111.932C113.016 32.2339 113.716 31.5314 113.716 30.5244C113.716 29.4823 113.016 28.8267 111.943 28.8267ZM111.853 31.4728H110.272V29.5877H111.853C112.53 29.5877 112.858 29.9273 112.858 30.5362C112.858 31.1216 112.53 31.4728 111.853 31.4728ZM116.944 26.6488C115.352 26.6488 114.291 27.808 114.291 29.5409C114.291 31.2504 115.352 32.4095 117.001 32.4095C118.311 32.4095 118.977 31.6719 119.361 31.1099L118.774 30.5596C118.458 30.9928 117.961 31.5899 116.99 31.5899C115.895 31.5899 115.138 30.8406 115.116 29.6463H119.451V29.4941C119.451 27.8899 118.65 26.6488 116.944 26.6488ZM116.9 27.4333C117.904 27.4333 118.491 28.0188 118.571 29.0023H115.149C115.274 27.9719 115.997 27.4333 116.9 27.4333ZM120.541 34.5757H121.354V31.2738H121.376C121.738 31.9529 122.404 32.4095 123.352 32.4095C124.786 32.4095 125.938 31.3207 125.938 29.5292C125.938 27.7377 124.786 26.6488 123.352 26.6488C122.404 26.6488 121.738 27.1055 121.376 27.7846H121.354V26.8245H120.541V34.5757ZM123.194 31.5782C122.054 31.5782 121.308 30.7235 121.308 29.5292C121.308 28.3349 122.054 27.4802 123.194 27.4802C124.335 27.4802 125.08 28.3349 125.08 29.5292C125.08 30.7235 124.335 31.5782 123.194 31.5782ZM129.249 32.4095C130.198 32.4095 130.864 31.9529 131.225 31.2738H131.248V32.2339H132.06V26.8245H131.248V27.7846H131.225C130.864 27.1055 130.198 26.6488 129.249 26.6488C127.815 26.6488 126.663 27.7377 126.663 29.5292C126.663 31.3207 127.815 32.4095 129.249 32.4095ZM129.407 31.5782C128.266 31.5782 127.521 30.7235 127.521 29.5292C127.521 28.3349 128.266 27.4802 129.407 27.4802C130.547 27.4802 131.293 28.3349 131.293 29.5292C131.293 30.7235 130.547 31.5782 129.407 31.5782Z" fill="white"/>
</g>
<defs>
<clipPath id="clip0_348_65">
<rect width="215" height="37" fill="white"/>
</clipPath>
</defs>
</svg>
