<svg width="422" height="388" viewBox="0 0 422 388" fill="none" xmlns="http://www.w3.org/2000/svg">
<g clip-path="url(#clip0_2001_69)">
<path fill-rule="evenodd" clip-rule="evenodd" d="M250.594 80.0138C202.892 73.4432 154.938 90.3204 115.075 112.735C70.7519 137.657 32.5197 171.583 9.00676 197.518L44.1426 229.423C64.9091 206.519 99.2518 176.092 138.326 154.121C163.076 140.204 188.234 130.5 212.237 127.253C180.9 172.518 167.677 214.589 170.816 251.266C174.947 299.524 206.892 332.612 248.814 345.605C281.314 355.679 311.669 351.42 335.915 336.053C359.709 320.976 375.676 296.471 382.798 269.171C397.163 214.092 376.552 145.302 309.354 101.836C306.473 99.9723 303.563 98.2299 300.627 96.606C355.956 41.9742 442.654 -20.528 571.679 -87.3788L549.854 -129.535C405.552 -54.7692 309.779 16.3347 250.594 80.0138ZM267.192 133.136C272.75 135.381 278.231 138.212 283.621 141.698C334.152 174.384 345.937 222.52 336.902 257.16C332.322 274.719 322.639 288.268 310.524 295.947C298.865 303.335 283.055 306.533 262.824 300.263C236.877 292.22 220.347 273.78 218.076 247.24C215.832 221.029 227.122 182.266 267.192 133.136Z" fill="#E2F5FF"/>
</g>
<defs>
<clipPath id="clip0_2001_69">
<rect width="422" height="388" fill="white"/>
</clipPath>
</defs>
</svg>
