<svg width="10" height="16" viewBox="0 0 10 16" fill="none" xmlns="http://www.w3.org/2000/svg">
<g clip-path="url(#clip0_2008_99)">
<path d="M1.64645 1.35355C1.45118 1.15829 1.45118 0.841709 1.64645 0.646447C1.84171 0.451184 2.15829 0.451184 2.35355 0.646447L1.64645 1.35355ZM8.64645 8.35355L1.64645 1.35355L2.35355 0.646447L9.35355 7.64645L8.64645 8.35355Z" fill="white"/>
<path d="M1.64652 15.3536C1.45126 15.5488 1.13468 15.5488 0.939415 15.3536C0.744153 15.1583 0.744153 14.8417 0.939415 14.6464L1.64652 15.3536ZM8.64652 8.35355L1.64652 15.3536L0.939415 14.6464L7.93942 7.64645L8.64652 8.35355Z" fill="white"/>
</g>
<defs>
<clipPath id="clip0_2008_99">
<rect width="10" height="16" fill="white" transform="matrix(-1 0 0 1 10 0)"/>
</clipPath>
</defs>
</svg>
