<svg width="24" height="26" viewBox="0 0 24 26" fill="none" xmlns="http://www.w3.org/2000/svg">
<g clip-path="url(#clip0_56_4280)">
<path d="M11.9939 0.970032C9.62035 0.969261 7.29989 1.6724 5.32599 2.9905C3.35208 4.30861 1.81341 6.18249 0.904559 8.37513C-0.00428927 10.5677 -0.242485 12.9807 0.220097 15.3087C0.68268 17.6367 1.82526 19.7753 3.50334 21.4539C5.18141 23.1325 7.3196 24.2758 9.64748 24.7391C11.9754 25.2025 14.3884 24.9651 16.5813 24.0569C18.7742 23.1488 20.6486 21.6107 21.9674 19.6373C23.2861 17.6638 23.99 15.3435 23.99 12.97C23.99 9.78811 22.7263 6.73645 20.4767 4.48613C18.2271 2.2358 15.1758 0.971065 11.9939 0.970032ZM18.0523 17.5596H16.5718C16.0069 17.5596 15.8432 17.1194 14.8381 16.1336C13.9575 15.2999 13.5796 15.1908 13.3614 15.1908C12.89 15.1908 12.9718 15.3466 12.9718 16.9947C12.9718 17.3531 12.8549 17.5596 11.9121 17.5596C10.3536 17.5596 8.62376 16.6246 7.39649 14.9025C5.56142 12.3739 5.05883 10.461 5.05883 10.0752C5.05883 9.86095 5.14454 9.68562 5.56532 9.68562H7.04584C7.43545 9.68562 7.56792 9.84536 7.71597 10.2506C8.44064 12.3233 9.66402 14.1466 10.1627 14.1466C10.3536 14.1466 10.4355 14.0609 10.4355 13.5934V11.4505C10.3809 10.4648 9.84714 10.383 9.84714 10.0324C9.85004 9.98471 9.86255 9.93812 9.8839 9.8954C9.90525 9.85269 9.93502 9.81473 9.9714 9.7838C10.0078 9.75287 10.0501 9.72962 10.0957 9.71542C10.1413 9.70123 10.1892 9.69639 10.2368 9.7012H12.5744C12.8861 9.7012 12.9952 9.86484 12.9952 10.235V13.1142C12.9952 13.422 13.1355 13.531 13.229 13.531C13.416 13.531 13.5757 13.422 13.9186 13.083C14.666 12.1856 15.2789 11.1842 15.7381 10.1103C15.79 9.9847 15.8808 9.87907 15.9972 9.80894C16.1137 9.73881 16.2495 9.70787 16.3848 9.72069H17.8381C18.2861 9.72069 18.3796 9.94666 18.2861 10.2545C18.0991 11.0999 16.2952 13.5973 16.2913 13.6012C16.1355 13.8466 16.0731 13.9908 16.2913 14.2479C16.377 14.3648 18.2783 16.1375 18.5588 16.9986C18.6952 17.3531 18.4809 17.5596 18.0601 17.5596H18.0523Z" fill="#1A67FC"/>
</g>
<defs>
<clipPath id="clip0_56_4280">
<rect width="24" height="25" fill="white" transform="translate(-0.0100098 0.470032)"/>
</clipPath>
</defs>
</svg>
