<svg width="24" height="26" viewBox="0 0 24 26" fill="none" xmlns="http://www.w3.org/2000/svg">
<g clip-path="url(#clip0_1_10640)">
<path d="M11.9939 0.979981C9.62035 0.97921 7.29989 1.68235 5.32599 3.00045C3.35208 4.31856 1.81341 6.19244 0.904559 8.38508C-0.00428927 10.5777 -0.242485 12.9907 0.220097 15.3187C0.68268 17.6467 1.82526 19.7853 3.50334 21.4639C5.18141 23.1425 7.3196 24.2858 9.64748 24.7491C11.9754 25.2125 14.3884 24.9751 16.5813 24.0669C18.7742 23.1588 20.6486 21.6207 21.9674 19.6473C23.2861 17.6738 23.99 15.3535 23.99 12.98C23.99 9.79806 22.7263 6.7464 20.4767 4.49608C18.2271 2.24575 15.1758 0.981014 11.9939 0.979981ZM18.0523 17.5696H16.5718C16.0069 17.5696 15.8432 17.1294 14.8381 16.1436C13.9575 15.3099 13.5796 15.2008 13.3614 15.2008C12.89 15.2008 12.9718 15.3566 12.9718 17.0047C12.9718 17.3631 12.8549 17.5696 11.9121 17.5696C10.3536 17.5696 8.62376 16.6346 7.39649 14.9125C5.56142 12.3839 5.05883 10.4709 5.05883 10.0852C5.05883 9.8709 5.14454 9.69557 5.56532 9.69557H7.04584C7.43545 9.69557 7.56792 9.85531 7.71597 10.2605C8.44064 12.3333 9.66402 14.1566 10.1627 14.1566C10.3536 14.1566 10.4355 14.0709 10.4355 13.6034V11.4605C10.3809 10.4748 9.84714 10.393 9.84714 10.0423C9.85004 9.99466 9.86255 9.94807 9.8839 9.90535C9.90525 9.86264 9.93502 9.82468 9.9714 9.79375C10.0078 9.76282 10.0501 9.73957 10.0957 9.72537C10.1413 9.71118 10.1892 9.70634 10.2368 9.71115H12.5744C12.8861 9.71115 12.9952 9.87479 12.9952 10.2449V13.1242C12.9952 13.432 13.1355 13.541 13.229 13.541C13.416 13.541 13.5757 13.432 13.9186 13.093C14.666 12.1956 15.2789 11.1942 15.7381 10.1203C15.79 9.99465 15.8808 9.88902 15.9972 9.81889C16.1137 9.74876 16.2495 9.71782 16.3848 9.73064H17.8381C18.2861 9.73064 18.3796 9.95661 18.2861 10.2644C18.0991 11.1099 16.2952 13.6073 16.2913 13.6112C16.1355 13.8566 16.0731 14.0008 16.2913 14.2579C16.377 14.3748 18.2783 16.1475 18.5588 17.0086C18.6952 17.3631 18.4809 17.5696 18.0601 17.5696H18.0523Z" fill="#1A67FC"/>
</g>
<defs>
<clipPath id="clip0_1_10640">
<rect width="24" height="25" fill="white" transform="translate(-0.0100098 0.47998)"/>
</clipPath>
</defs>
</svg>
