<svg width="24" height="26" viewBox="0 0 24 26" fill="none" xmlns="http://www.w3.org/2000/svg">
<g clip-path="url(#clip0_56_4284)">
<path fill-rule="evenodd" clip-rule="evenodd" d="M11.99 24.97C18.6174 24.97 23.99 19.5974 23.99 12.97C23.99 6.34261 18.6174 0.970032 11.99 0.970032C5.36257 0.970032 -0.0100098 6.34261 -0.0100098 12.97C-0.0100098 19.5974 5.36257 24.97 11.99 24.97ZM7.46315 14.0187L4.23727 12.8147C3.90962 12.692 3.90678 12.2294 4.23349 12.1034L17.4726 6.99618C17.7532 6.88764 18.0429 7.13353 17.9817 7.42827L15.6059 18.8565C15.5499 19.1263 15.2335 19.2487 15.0102 19.0864L11.767 16.7317C11.57 16.5887 11.3015 16.5964 11.1131 16.75L9.31488 18.2158C9.10614 18.3865 8.79166 18.2914 8.71176 18.0343L7.46315 14.0187ZM14.8151 9.49486L8.51054 13.3778C8.2689 13.527 8.15512 13.8188 8.2332 14.092L8.91486 16.4871C8.96325 16.6569 9.2096 16.6394 9.23307 16.4641L9.41032 15.1506C9.44373 14.9033 9.5617 14.6755 9.74459 14.5052L14.9477 9.66874C15.045 9.57848 14.9284 9.42528 14.8151 9.49486Z" fill="#1A67FC"/>
</g>
<defs>
<clipPath id="clip0_56_4284">
<rect width="24" height="25" fill="white" transform="translate(-0.0100098 0.470032)"/>
</clipPath>
</defs>
</svg>
