<svg width="651" height="461" viewBox="0 0 651 461" fill="none" xmlns="http://www.w3.org/2000/svg">
<g clip-path="url(#clip0_2001_63)">
<path fill-rule="evenodd" clip-rule="evenodd" d="M319.005 133.104C266.67 108.512 205.655 110.701 151.936 122.129C92.205 134.836 36.2356 160.041 0 181.352L28.8643 230.483C60.8671 211.662 111.125 189.077 163.782 177.874C197.136 170.779 229.45 168.656 258.129 173.52C206.007 214.185 175.795 257.668 166.27 300.824C153.738 357.605 178.522 406.95 221.933 436.835C255.587 460.004 291.911 465.98 325.206 457.042C357.878 448.275 384.952 425.903 402.884 397.165C439.061 339.182 440.046 252.977 378.561 179.129C375.925 175.963 373.213 172.925 370.427 170.014C453.406 127.196 575.162 86.5787 747 56.1174L737.064 0C544.881 34.0678 409.642 81.2967 319.005 133.104ZM319.026 199.918C324.595 204.48 329.865 209.684 334.797 215.606C381.032 271.139 377.319 330.518 354.567 366.983C343.032 385.467 327.084 397.532 310.447 401.999C294.437 406.295 275.168 404.305 254.219 389.883C227.35 371.386 214.998 344.341 221.89 313.114C228.697 282.273 255.509 241.888 319.026 199.918Z" fill="#F2F2F2"/>
</g>
<defs>
<clipPath id="clip0_2001_63">
<rect width="651" height="461" fill="white"/>
</clipPath>
</defs>
</svg>
